<svg xmlns="http://www.w3.org/2000/svg" viewBox="0 0 24 24"><path d="M13.5 24h-4a.502.502 0 01-.475-.342L8.14 21H2.5a.5.5 0 01-.5-.5C2 9.005 6.173 0 11.5 0S21 9.005 21 20.5a.5.5 0 01-.5.5h-5.64l-.886 2.658A.5.5 0 0113.5 24zm-3.64-1h3.279l.886-2.658A.502.502 0 0114.5 20h5.497C19.877 9.649 16.034 1 11.5 1S3.123 9.649 3.003 20H8.5c.215 0 .406.138.475.342L9.86 23z"/><path d="M18.5 24h-14a.501.501 0 01-.416-.223l-2-3a.5.5 0 11.832-.554L4.768 23h13.465l1.852-2.777a.5.5 0 01.832.554l-2 3A.504.504 0 0118.5 24zM11.5 6C9.303 6 8.19 4.898 8.144 4.852a.502.502 0 01.004-.708.503.503 0 01.705.003C8.898 4.19 9.754 5 11.5 5c1.747 0 2.613-.821 2.648-.855a.504.504 0 01.706.006.498.498 0 01-.001.703C14.808 4.9 13.685 6 11.5 6zM8.5 9h-4a.5.5 0 010-1h4a.5.5 0 010 1zM18.5 9h-4a.5.5 0 010-1h4a.5.5 0 010 1zM11.5 10c-.827 0-1.5-.673-1.5-1.5S10.673 7 11.5 7s1.5.673 1.5 1.5-.673 1.5-1.5 1.5zm0-2c-.275 0-.5.225-.5.5s.225.5.5.5.5-.225.5-.5-.225-.5-.5-.5zM19.5 12h-16a.5.5 0 010-1h16a.5.5 0 010 1z"/><circle cx="7.5" cy="13.5" r=".5"/><circle cx="9.5" cy="13.5" r=".5"/><circle cx="11.5" cy="13.5" r=".5"/><circle cx="13.5" cy="13.5" r=".5"/><circle cx="15.5" cy="13.5" r=".5"/><circle cx="13.5" cy="15.5" r=".5"/><circle cx="15.5" cy="15.5" r=".5"/><path d="M20 18H3a.5.5 0 010-1h17a.5.5 0 010 1z"/></svg>